<svg version="1.2" xmlns="http://www.w3.org/2000/svg" viewBox="0 0 652 141" width="652" height="141">
	<title>freshworks-svg</title>
	<style>
		.s0 { fill: #4d4d4d } 
		.s1 { fill: #9b65c3 } 
		.s2 { fill: #be63c5 } 
		.s3 { fill: #bf63c6 } 
		.s4 { fill: #3278b1 } 
		.s5 { fill: #3278b2 } 
		.s6 { fill: #45a4ec } 
		.s7 { fill: #19bb7d } 
		.s8 { fill: #08c7fb } 
		.s9 { fill: #59f2f6 } 
		.s10 { fill: #ffa700 } 
		.s11 { fill: #da3757 } 
		.s12 { fill: #d33c4e } 
		.s13 { fill: #ee5a24 } 
		.s14 { fill: #8bdf55 } 
		.s15 { fill: #25c16f } 
		.s16 { fill: #ffbb00 } 
		.s17 { fill: #ffa800 } 
	</style>
	<g id="Layer">
		<path id="Layer" class="s0" d="m172 15.9c0 2.3-1.8 4.1-4.1 4.1c-9.7 0-11.7 6.5-11.7 12v6h9.7c2.3 0 4.1 1.8 4.1 4.1c0 2.3-1.8 4.1-4.1 4.1h-9.7v41.4c0 2.5-2 4.4-4.4 4.4c-2.5 0-4.4-2-4.4-4.4v-41.4h-3.2c-2.3 0-4.1-1.8-4.1-4.1c0-2.3 1.8-4.1 4.1-4.1h3.2v-6c0-9.8 5.3-20.3 20.4-20.3c2.3 0 4.1 1.8 4.2 4.2z" />
		<path id="Layer" class="s0" d="m206 40.8c0 2.3-1.9 4.2-4.2 4.2c-9.4 0-15.1 6.4-15.1 17.1v25.5c0 2.5-2 4.4-4.4 4.4c-2.5 0-4.4-2-4.4-4.4v-46.2c0-2.5 2-4.4 4.4-4.4c2.5 0 4.4 2 4.4 4.4v2.3c3.1-4.4 8.6-7.1 15.1-7.1c2.4 0 4.3 1.9 4.2 4.2z" />
		<path id="Layer" fill-rule="evenodd" class="s0" d="m250 67.4h-32.5c0.3 10.6 6.6 17.1 16.5 17.1c6.3 0 10-2.4 13.2-4.8c0.7-0.5 1.4-0.8 2.5-0.8c2.2 0 4 1.8 4 4c0 1.5-0.8 2.4-1.5 3.1c-1.1 1.1-7.2 6.6-18.3 6.6c-16.5 0-25.3-9.8-25.3-28.2c0-17.8 8.8-28 24.2-28c8.3 0 14.4 2.9 18.3 8.5c3.8 5.4 4.2 11.9 4.2 14.4c0 3.2 0 8-5.3 8.1zm-32.4-7.9h29.1c-0.2-10-4.9-15.1-13.9-15.1c-9 0-14.4 5.4-15.2 15.1z" />
		<path id="Layer" class="s0" d="m302.5 76.8c0 9.8-7.5 15.7-20.1 15.7c-9.2 0-16.7-4.3-20-8.5c-0.7-1-1-1.7-1-2.6c0-2.2 1.8-4 4-4c0.7 0 1.9 0.2 3 1.3c3.7 3.6 8.2 5.4 14 5.4c4.3 0 11.4-1 11.4-7.4c0-4.7-5.5-6.5-11.9-8.7c-8.4-2.8-18-6.1-18-17c0-8.9 6.9-14.5 18.1-14.5c7.9 0 14.2 2.7 17.9 7.6c0.4 0.6 0.9 1.4 0.9 2.6c0 2.2-1.8 4-4 4c-1.1 0-2.1-0.4-2.9-1.2c-2.5-2.4-5.6-4.6-11.9-4.6c-3.5 0-9.4 0.8-9.4 6.1c0 4.8 5.6 6.8 12.1 9c8.4 2.9 17.8 6.2 17.8 16.8z" />
		<path id="Layer" class="s0" d="m358.4 57.3v30.4c0 2.5-2 4.4-4.4 4.4c-2.5 0-4.4-2-4.4-4.4v-28.9c0-10.2-3.8-14.4-13-14.4c-9.5 0-14.4 5.1-14.4 15.2v28.1c0 2.5-2 4.4-4.4 4.4c-2.5 0-4.4-2-4.4-4.4v-74.7c0-2.5 2-4.4 4.4-4.4c2.5 0 4.4 2 4.4 4.4v29.6c3-3.8 8.4-6.2 14.4-6.2c14.3 0 21.6 7 21.8 20.9z" />
		<path id="Layer" class="s0" d="m435.3 41.3c0 0.6-0.1 1.3-0.4 1.9l-16.7 45.9c-0.7 1.8-2.2 2.9-4.1 2.9c-1.9 0-3.7-1.3-4.2-3.1l-9.8-33.7l-9.8 33.7c-0.5 1.8-2.2 3.1-4.2 3.1c-1.9 0-3.4-1-4.1-2.8l-16.7-45.9c-0.3-0.6-0.4-1.2-0.4-1.8c0-2.5 2-4.4 4.4-4.4c1.9 0 3.4 1 4.1 2.8l12.5 35.6l10.2-35.5c0.4-1.4 1.9-2.9 4.1-2.9c2.2 0 3.7 1.5 4.1 2.9l10.2 35.6l12.5-35.6c0.7-1.8 2.2-2.9 4.1-2.9c2.4 0 4.3 1.9 4.2 4.2z" />
		<path id="Layer" fill-rule="evenodd" class="s0" d="m487.5 64.4c0 18.2-8.7 28.2-24.6 28.2c-15.9 0-24.6-10-24.6-28.2c0-18 8.7-28 24.6-28c15.8 0 24.6 9.9 24.6 28zm-8.8 0.1c0-13.3-5.3-20-15.8-20c-10.5 0-15.8 6.7-15.8 20c0 13.5 5.2 20.1 15.8 20.1c10.6 0 15.8-6.6 15.8-20.1z" />
		<path id="Layer" class="s0" d="m525.5 40.8c0 2.3-1.9 4.2-4.2 4.2c-9.4 0-15.1 6.4-15.1 17.1v25.5c0 2.5-2 4.4-4.4 4.4c-2.5 0-4.4-2-4.4-4.4v-46.2c0-2.5 2-4.4 4.4-4.4c2.5 0 4.4 2 4.4 4.4v2.3c3.1-4.4 8.6-7.1 15.1-7.1c2.3 0 4.2 1.9 4.2 4.2z" />
		<path id="Layer" class="s0" d="m574.2 85c0.8 1 0.9 2 0.9 2.7c0 2.5-2 4.4-4.4 4.4c-1.4 0-2.6-0.7-3.7-2l-19.7-25.3l-6.1 4.9v18c0 2.5-2 4.4-4.4 4.4c-2.5 0-4.4-2-4.4-4.4v-74.7c0-2.5 2-4.4 4.4-4.4c2.5 0 4.4 2 4.4 4.4v46.1l25.7-21c1.1-1 2.3-1.1 3-1.1c2.5 0 4.4 2 4.4 4.4c0 0.8-0.2 2.3-1.7 3.5l-18.1 14.5z" />
		<path id="Layer" class="s0" d="m621.6 76.8c0 9.8-7.5 15.7-20.1 15.7c-9.2 0-16.7-4.3-20-8.5c-0.7-1-1-1.7-1-2.6c0-2.2 1.8-4 4-4c0.8 0 1.9 0.2 3 1.3c3.7 3.6 8.2 5.4 14 5.4c4.3 0 11.4-1 11.4-7.4c0-4.7-5.5-6.5-11.9-8.7c-8.4-2.8-18-6.1-18-17c0-8.9 6.9-14.5 18.1-14.5c7.9 0 14.2 2.7 17.9 7.6c0.2 0.4 0.9 1.3 0.9 2.6c0 2.2-1.8 4-4 4c-1.1 0-2.1-0.4-2.9-1.2c-2.5-2.4-5.6-4.6-11.9-4.6c-3.5 0-9.4 0.8-9.4 6.1c0 4.8 5.6 6.8 12.1 9c8.4 2.9 17.8 6.2 17.8 16.8z" />
		<path id="Layer" class="s1" d="m79.7 51.9c-16.4 9.5-25.6 26.7-25.6 44.4l-17.5 17.5c-7.5-7.5-12.7-17.5-14.4-28.6z" />
		<path id="Layer" class="s1" d="m36.6 113.7c-7.5-7.5-12.7-17.5-14.4-28.6c2 1.6 4.1 3 6.3 4.3c8.1 4.7 16.9 6.9 25.6 6.9z" />
		<path id="Layer" class="s2" d="m98.4 70.7l-33.2 57.5c-11.1-1.6-21-6.8-28.6-14.4l17.5-17.5c17.7 0 34.9-9.2 44.3-25.6z" />
		<path id="Layer" class="s3" d="m65.2 128.3c-11.1-1.6-21-6.8-28.6-14.4l17.5-17.5c0 8.7 2.2 17.5 6.9 25.6q2 3.3 4.2 6.3z" />
		<path id="Layer" class="s4" d="m120.4 30.2l-66.2 66.2c-8.7 0-17.5-2.2-25.6-6.9c-2.2-1.3-4.3-2.7-6.3-4.3c-0.4-2.5-0.6-5-0.6-7.6c0-9.3 2.5-18.1 6.9-25.6c15.3 8.8 34.8 9.5 51.2 0l39.5-22.9c0.4 0.3 0.7 0.7 1.1 1.1z" />
		<path id="Layer" class="s5" d="m22.1 85.2l57.6-33.2c-16.4 9.5-25.6 26.7-25.6 44.4c-8.7 0-17.5-2.2-25.6-6.9c-2.2-1.3-4.3-2.8-6.4-4.3z" />
		<path id="Layer" class="s6" d="m79.8 52l-57.6 33.2c-0.4-2.5-0.6-5-0.6-7.6c0-9.3 2.5-18.1 6.9-25.6c15.3 8.8 34.8 9.4 51.3 0z" />
		<path id="Layer" class="s7" d="m121.3 31.2l-22.8 39.5c-9.5 16.4-26.7 25.6-44.4 25.6c0-17.7 9.2-34.9 25.6-44.4c-16.4 9.5-35.9 8.8-51.2 0c8.9-15.3 25.4-25.6 44.4-25.6h38.4c2.3 0 4.5 0.6 6.4 1.7c0.6 0.3 1.1 0.7 1.6 1.1c0.4 0.3 0.8 0.7 1.1 1c0.3 0.3 0.6 0.7 0.9 1.1z" />
		<path id="Layer" class="s8" d="m28.5 52l89.2-23.9c0.6 0.3 1.1 0.7 1.6 1.1l-39.5 22.8c-16.5 9.4-36 8.8-51.3 0z" />
		<path id="Layer" class="s9" d="m117.7 28l-89.2 23.9c8.9-15.3 25.4-25.6 44.4-25.6h38.4c2.4 0 4.5 0.7 6.4 1.7z" />
		<path id="Layer" class="s10" d="" />
		<path id="Layer" class="s11" d="m98.5 121.9c-7.5 4.4-16.3 6.9-25.6 6.9c-2.6 0-5.1-0.2-7.6-0.6c-1.6-2-3-4.1-4.3-6.3c-4.7-8.1-6.9-16.9-6.9-25.6l66.2-66.2c0.4 0.4 0.7 0.7 1 1.1l-22.8 39.5c-9.5 16.4-8.8 35.9 0 51.2z" />
		<path id="Layer" class="s12" d="m98.5 70.7l-33.2 57.5c-1.6-2-3-4.1-4.3-6.3c-4.7-8.1-6.9-16.9-6.9-25.6c17.7 0 34.9-9.2 44.4-25.6z" />
		<path id="Layer" class="s13" d="m98.5 122c-7.5 4.4-16.3 6.9-25.6 6.9c-2.6 0-5.1-0.2-7.6-0.6l33.2-57.6c-9.5 16.4-8.8 35.9 0 51.3z" />
		<path id="Layer" class="s14" d="m124.2 39.2v38.4c0 19-10.3 35.5-25.6 44.4c-8.8-15.3-9.5-34.8 0-51.2c-9.5 16.4-26.7 25.6-44.4 25.6c0-17.7 9.2-34.9 25.6-44.4l39.4-22.9c0.4 0.3 0.8 0.7 1.1 1c0.4 0.4 0.7 0.7 1 1.1c0.4 0.5 0.8 1 1.1 1.6c1.1 1.8 1.7 4 1.8 6.4z" />
		<path id="Layer" class="s15" d="m120.4 30.2l-66.2 66.2c0-17.7 9.2-34.9 25.6-44.4l39.5-22.9c0.4 0.3 0.7 0.7 1.1 1.1z" />
		<path id="Layer" class="s14" d="m120.3 30.1c0.4 0.4 0.7 0.7 1 1.1l-22.8 39.5c-9.5 16.4-26.7 25.6-44.4 25.6z" />
		<path id="Layer" class="s16" d="m122.4 32.7l-23.9 89.2c-8.8-15.3-9.5-34.8 0-51.2l22.8-39.5c0.4 0.5 0.8 1 1.1 1.5z" />
		<path id="Layer" class="s17" d="m122.4 32.8c1.1 1.9 1.7 4.1 1.7 6.4v38.4c0 19-10.3 35.5-25.6 44.4z" />
	</g>
</svg>